HIERARCHY
ROOT Hips
{
	OFFSET -3.958830 18.904000 13.208200
	CHANNELS 6 Xposition Yposition Zposition Zrotation Yrotation Xrotation 
	JOINT LHipJoint
	{
		OFFSET 0.000000 0.000000 0.000000
		CHANNELS 3 Zrotation Yrotation Xrotation
		JOINT LeftUpLeg
		{
			OFFSET 1.800000 -1.400000 0.085000
			CHANNELS 3 Zrotation Yrotation Xrotation
			JOINT LeftLeg
			{
				OFFSET 2.215000 -6.000000 0.000000
				CHANNELS 3 Zrotation Yrotation Xrotation
				JOINT LeftFoot
				{
					OFFSET 2.500000 -6.900000 0.000000
					CHANNELS 3 Zrotation Yrotation Xrotation
					JOINT LeftToeBase
					{
						OFFSET 0.200000 -0.500000 1.950000
						CHANNELS 3 Zrotation Yrotation Xrotation
						End Site
						{
							OFFSET 0.000000 0.000000 0.000000
						}
					}
				}
			}
		}
	}
	JOINT RHipJoint
	{
		OFFSET 0.000000 0.000000 0.000000
		CHANNELS 3 Zrotation Yrotation Xrotation
		JOINT RightUpLeg
		{
			OFFSET -1.800000 -1.400000 0.085000
			CHANNELS 3 Zrotation Yrotation Xrotation
			JOINT RightLeg
			{
				OFFSET -2.215000 -6.000000 0.000000
				CHANNELS 3 Zrotation Yrotation Xrotation
				JOINT RightFoot
				{
					OFFSET -2.500000 -6.900000 0.000000
					CHANNELS 3 Zrotation Yrotation Xrotation
					JOINT RightToeBase
					{
						OFFSET -0.200000 -0.500000 1.950000
						CHANNELS 3 Zrotation Yrotation Xrotation
						End Site
						{
							OFFSET 0.000000 0.000000 0.000000
						}
					}
				}
			}
		}
	}
	JOINT LowerBack
	{
		OFFSET 0.000000 0.000000 0.000000
		CHANNELS 3 Zrotation Yrotation Xrotation
		JOINT Spine
		{
			OFFSET -0.087000 1.940000 -0.288900
			CHANNELS 3 Zrotation Yrotation Xrotation
			JOINT Spine1
			{
				OFFSET 0.000000 1.950000 0.060000
				CHANNELS 3 Zrotation Yrotation Xrotation
				JOINT Neck
				{
					OFFSET 0.000000 0.000000 0.000000
					CHANNELS 3 Zrotation Yrotation Xrotation
					JOINT Neck1
					{
						OFFSET 0.000000 1.600000 0.340000
						CHANNELS 3 Zrotation Yrotation Xrotation
						JOINT Head
						{
							OFFSET 0.000000 1.667000 -0.240000
							CHANNELS 3 Zrotation Yrotation Xrotation
							End Site
							{
								OFFSET 0.000000 0.000000 0.000000
							}
						}
					}
				}
				JOINT LeftShoulder
				{
					OFFSET 0.000000 0.000000 0.000000
					CHANNELS 3 Zrotation Yrotation Xrotation
					JOINT LeftArm
					{
						OFFSET 2.700000 1.550000 -0.730000
						CHANNELS 3 Zrotation Yrotation Xrotation
						JOINT LeftForeArm
						{
							OFFSET 5.450000 0.000000 0.000000
							CHANNELS 3 Zrotation Yrotation Xrotation
							JOINT LeftHand
							{
								OFFSET 3.450000 0.000000 0.000000
								CHANNELS 3 Zrotation Yrotation Xrotation
								JOINT LeftHandIndex1
								{
									OFFSET 0.750000 0.000000 0.000000
									CHANNELS 3 Zrotation Yrotation Xrotation
									End Site
									{
										OFFSET 0.000000 0.000000 0.000000
									}
								}
							}
						}
					}
				}
				JOINT RightShoulder
				{
					OFFSET 0.000000 0.000000 0.000000
					CHANNELS 3 Zrotation Yrotation Xrotation
					JOINT RightArm
					{
						OFFSET -2.700000 1.550000 -0.730000
						CHANNELS 3 Zrotation Yrotation Xrotation
						JOINT RightForeArm
						{
							OFFSET -5.450000 0.000000 0.000000
							CHANNELS 3 Zrotation Yrotation Xrotation
							JOINT RightHand
							{
								OFFSET -3.450000 0.000000 0.000000
								CHANNELS 3 Zrotation Yrotation Xrotation
								JOINT RightHandIndex1
								{
									OFFSET -0.750000 0.000000 0.000000
									CHANNELS 3 Zrotation Yrotation Xrotation
									End Site
									{
										OFFSET 0.000000 0.000000 0.000000
									}
								}
							}
						}
					}
				}
			}
		}
	}
}
MOTION
Frames: 6
Frame Time: 0.016667
0.866180 17.550390 -3.804640 -0.302287 -3.093866 -2.340682 -15.409472 13.678467 2.936420 -0.136481 0.215735 -3.176379 -8.586079 7.150025 15.379703 -0.456765 5.388188 3.023815 0.245440 -0.386280 0.316940 18.092095 -10.173824 3.024596 -0.808782 2.878119 -25.066061 5.575595 -3.583196 8.686552 0.145164 -2.115809 3.938260 -0.136690 0.531160 0.290370 -2.942550 -3.062461 -7.349408 2.872139 -4.177877 10.434862 -6.001582 -3.455974 7.318343 3.208376 -1.546190 -5.903441 -6.551768 6.741318 46.595499 -6.351490 6.809540 2.150200 -20.884887 4.465231 -0.586204 -43.379320 8.753812 -10.596401 -35.866140 -21.686794 2.371197 -3.933496 2.899316 0.684290 0.379050 -0.247990 0.206150 15.225446 -5.264299 3.148515 55.459701 -13.853207 -18.095753 55.111961 31.873525 8.592002 1.800952 -1.599745 -0.428340 0.263080 0.115210 -0.363970 
0.869740 17.552850 -3.803380 -0.386320 -3.186718 -2.304737 -15.399858 13.665309 2.930570 -0.117334 0.195904 -3.209843 -8.592880 7.139509 15.388224 -0.457254 5.379318 3.021525 0.260750 -0.368050 0.325730 18.103411 -10.175098 3.027531 -0.744177 2.834538 -24.791036 5.683505 -3.565342 8.258123 0.135227 -2.121797 3.938875 -0.131670 0.525360 0.300020 -2.972671 -3.039770 -7.347478 3.092848 -4.279560 10.481177 -6.245727 -3.540849 7.409179 3.255118 -1.535165 -5.812228 -6.464440 6.773278 46.453620 -6.398370 6.876620 1.755450 -20.906109 4.623082 -0.665709 -43.232114 8.839922 -10.660153 -36.156148 -21.919652 2.472363 -3.930633 2.911838 0.684090 0.379090 -0.240580 0.208260 15.135571 -5.513325 3.097836 55.437748 -14.008171 -18.133367 55.542020 31.915081 8.707992 1.793223 -1.608169 -0.415970 0.257340 0.109800 -0.362850 
0.876060 17.555530 -3.801910 -0.522326 -3.390358 -2.089675 -15.388445 13.639824 2.912563 -0.155417 0.118421 -3.524673 -8.557709 7.137122 15.641174 -0.465921 5.368038 3.018565 0.267140 -0.349900 0.320490 18.120341 -10.172493 3.035436 -0.555858 2.807227 -24.551465 5.707908 -3.504668 7.673613 0.130824 -2.126814 3.935125 -0.117940 0.525120 0.306580 -3.012679 -2.999060 -7.327644 3.384301 -4.408278 10.407346 -6.506446 -3.659992 7.547454 3.324809 -1.464879 -5.550712 -6.148564 6.757227 45.848416 -6.549980 7.062900 1.417030 -20.851726 5.102817 -0.873748 -43.212968 8.905991 -10.773946 -36.591013 -22.364215 2.677172 -3.934914 2.931638 0.674470 0.386320 -0.239130 0.212360 14.928201 -6.168390 2.923060 55.396189 -14.248547 -18.140437 55.901247 31.951154 8.836257 1.781561 -1.624936 -0.411230 0.252290 0.107390 -0.359290 
0.880710 17.561290 -3.798650 -0.775947 -3.775001 -1.741583 -15.363995 13.610030 2.898569 -0.060240 -0.002685 -4.004320 -8.695473 7.175996 15.866301 -0.462191 5.354763 3.031289 0.272750 -0.337060 0.317690 18.146402 -10.179207 3.054602 -0.200242 2.832076 -24.432216 5.589105 -3.426630 7.255993 0.129933 -2.110798 3.954745 -0.111250 0.534640 0.296350 -3.081118 -2.932615 -7.326952 3.909634 -4.484133 10.411684 -6.805237 -3.718858 7.415984 3.390988 -1.477931 -5.401373 -6.034096 6.789793 45.305566 -6.326120 7.091020 1.394880 -20.541058 5.683609 -1.091363 -43.439715 8.854104 -10.816240 -36.908973 -22.555543 2.833269 -3.930111 2.931485 0.667350 0.388370 -0.242000 0.227760 14.433680 -6.839860 2.869819 55.548110 -14.700432 -18.206252 56.375364 31.765408 8.888318 1.776049 -1.633062 -0.414520 0.264260 0.093850 -0.351710 
0.885340 17.571660 -3.797810 -1.034008 -4.259221 -1.381462 -15.344996 13.586007 2.889534 -0.043200 -0.117194 -4.489607 -8.718699 7.152234 15.963067 -0.482522 5.329298 3.039775 0.273780 -0.335330 0.320080 18.166513 -10.185818 3.067713 0.039563 2.873437 -24.456734 5.527045 -3.403641 7.161916 0.129696 -2.101507 3.959690 -0.106380 0.539460 0.293340 -3.132128 -2.879312 -7.321534 4.358106 -4.505871 10.440997 -6.973172 -3.722413 7.392061 3.466656 -1.443509 -5.237976 -5.862999 6.727313 44.839690 -6.307830 7.087630 1.046060 -20.136945 6.241438 -1.336602 -43.887934 8.601359 -10.836378 -37.159063 -22.657324 2.934757 -3.938987 2.923087 0.670620 0.390500 -0.243890 0.228040 13.844675 -7.503248 2.794856 55.710251 -15.003823 -18.252628 56.799127 31.367510 8.834169 1.764833 -1.630989 -0.421490 0.274150 0.095380 -0.354450 
0.886340 17.585060 -3.801630 -1.272586 -4.903414 -0.917135 -15.330925 13.556483 2.880516 0.047357 -0.309935 -5.265073 -8.932993 7.210827 16.303942 -0.512470 5.344156 3.030654 0.271650 -0.345820 0.324160 18.182128 -10.185783 3.079456 0.192456 2.962307 -24.695630 5.530774 -3.416649 7.284261 0.135834 -2.101047 3.961273 -0.104250 0.548540 0.297900 -3.167780 -2.828009 -7.306568 4.684532 -4.464934 10.373109 -7.095612 -3.661453 7.500079 3.557152 -1.367593 -5.084046 -5.587378 6.610613 44.188572 -6.551120 7.170750 0.748950 -19.688815 6.707426 -1.556785 -44.445490 8.238872 -10.854778 -37.231435 -22.889033 3.037027 -3.960316 2.915648 0.676240 0.401720 -0.252410 0.224620 13.190630 -8.082659 2.741446 56.115034 -15.123612 -18.321760 57.259173 31.281202 8.940756 1.744750 -1.633976 -0.433020 0.279280 0.103890 -0.364130 
